<svg xmlns="http://www.w3.org/2000/svg" viewBox="0 0 760 340"><defs><style>.cls-1,.cls-2{fill:#5c6ab2;}.cls-2{font-size:187.66px;font-family:Roboto-Italic, Roboto;font-style:italic;}.cls-3{font-size:38px;fill:#606161;font-family:Roboto-Medium, Roboto;}</style></defs><title>logo</title><g id="Layer_3" data-name="Layer 3"><path class="cls-1" d="M562.68,222.42c-11.15,1.38-24.38-3.63-30.93,10.43-25.2-15-49.43-55.69-42.7-101,7.92-53.22,49.46-88.16,95.67-92.56,52.8-5,98.36,24.41,114.75,73.17,16.22,48.3-3.87,96.87-37.44,120.74-6.53-13.88-19.43-9.84-30.64-10.61-3.68-6.8-3.68-6.8-23.37-8.09l-.64-6.77c11.55,0,22.52-.09,33.48,0,8.41.09,15.19-3.17,19-10.53,2-4,2.48-8.9,2.94-13.46.37-3.62.24-6.71,3.73-9.39,4.17-3.19,5.27-21.1,1.09-24.54-5.21-4.3-4.7-9.38-4.75-14.79-.08-9.39-4.18-16.51-12.84-20.21-3.78-1.62-8.21-1.72-13.14-2.66,0-7.3-.17-14.9.13-22.49.06-1.57,1.68-3.22,2.87-4.59,5.18-6,5.15-13.32-.2-18.18a12.08,12.08,0,0,0-16.72.53c-4.81,4.9-4.52,12,.37,17.77a11,11,0,0,1,2.77,5.9c.37,5.93.15,11.89.13,17.84,0,1-.2,2.07-.36,3.58H567c0-7.82-.18-15.79.16-23.74.06-1.51,2.07-3,3.3-4.4,4.74-5.44,4.55-12.17-.53-17.11a11.84,11.84,0,0,0-16.66-.14c-5,4.65-5,11.65-.82,17.26A19.58,19.58,0,0,1,556,93.8c.53,5.68.08,11.46,0,17.19a7.66,7.66,0,0,1-.58,1.68c-1.19.11-2.59.28-4,.38-12.69.82-20.6,9.09-20.84,22-.1,5.43.32,10.34-4.83,14.78-4.94,4.27-2.42,21.19,2.17,26a10.54,10.54,0,0,1,2.53,6.48c.39,18.25,7.5,25.39,25.71,25.4h29v6.13C577.9,217.94,566.13,208.65,562.68,222.42Z"/><path class="cls-1" d="M649.2,150.38c-.05-12.09-5.27-17.33-17.57-17.43-11.68-.1-23.36,0-35,0v0c-12.32,0-24.64-.18-37,.06-9.57.18-15.06,5.67-15.32,15.09q-.34,12.42,0,24.85c.25,9.42,5.79,15.11,15.27,15.18q37.27.27,74.55,0c9.27-.07,14.88-6.12,15-15.44C649.3,165.25,649.23,157.81,649.2,150.38ZM571,150.22a6.38,6.38,0,1,1,6.38,6.38A6.37,6.37,0,0,1,571,150.22Zm7.86,23c-1.66-2.14-2.67-4.9,1.1-5,11.63-.23,23.28.18,34.91.39.3,0,.59.56,1.18,1.17C608.74,183.06,587.87,184.81,578.9,173.25Zm37.19-16.65a6.38,6.38,0,1,1,6.37-6.38A6.37,6.37,0,0,1,616.09,156.6Z"/><text class="cls-2" transform="translate(54.81 200.22)">Selly</text><text class="cls-3" transform="translate(63.21 290.97)">Your virtual assistant to e-commerce</text></g></svg>