<svg xmlns="http://www.w3.org/2000/svg" viewBox="0 0 410 520"><defs><style>.cls-1,.cls-2{fill:#5c6ab2;}.cls-2{font-size:120px;font-family:Roboto-Medium, Roboto;}</style></defs><title>logo</title><g id="Layer_2" data-name="Layer 2"><path class="cls-1" d="M153.86,320.33c-16.83,2.08-36.81-5.49-46.71,15.74-38-22.66-74.63-84.08-64.46-152.49,12-80.35,74.68-133.11,144.44-139.76,79.73-7.61,148.52,36.86,173.26,110.48,24.5,72.92-5.84,146.26-56.53,182.29-9.86-20.94-29.33-14.85-46.26-16-5.55-10.26-5.55-10.26-35.28-12.21l-1-10.22c17.45,0,34-.14,50.55,0,12.69.14,22.93-4.79,28.67-15.9,3.08-6,3.74-13.43,4.45-20.33.55-5.45.36-10.12,5.63-14.17,6.29-4.82,8-31.86,1.65-37.06-7.88-6.48-7.11-14.15-7.18-22.32-.12-14.18-6.31-24.94-19.39-30.52-5.71-2.44-12.4-2.6-19.84-4,0-11-.25-22.5.2-33.95.09-2.38,2.54-4.86,4.33-6.93,7.82-9,7.78-20.12-.3-27.45a18.22,18.22,0,0,0-25.24.8c-7.26,7.4-6.84,18.19.56,26.83,2.08,2.43,4,5.83,4.18,8.9.56,9,.23,18,.19,27,0,1.56-.31,3.12-.54,5.4H160.34c0-11.8-.27-23.84.23-35.84.1-2.29,3.14-4.53,5-6.64,7.16-8.22,6.88-18.39-.79-25.83a17.86,17.86,0,0,0-25.17-.22c-7.51,7-7.52,17.59-1.23,26.06a29.44,29.44,0,0,1,5.39,14.18c.81,8.57.12,17.3,0,26a11.74,11.74,0,0,1-.86,2.52c-1.8.18-3.93.44-6.06.58-19.16,1.24-31.09,13.72-31.45,33.17-.15,8.2.48,15.61-7.29,22.32-7.46,6.44-3.67,32,3.27,39.31a15.9,15.9,0,0,1,3.81,9.79c.6,27.55,11.34,38.34,38.83,38.36h43.84v9.25C176.84,313.56,159.06,299.53,153.86,320.33Z"/><path class="cls-1" d="M284.49,211.55c-.07-18.25-7.95-26.16-26.52-26.32-17.64-.14-35.28,0-52.91,0v0c-18.6,0-37.21-.27-55.8.09-14.46.28-22.75,8.57-23.14,22.79q-.51,18.75,0,37.52c.38,14.23,8.74,22.81,23,22.92q56.28.42,112.56,0c14-.11,22.47-9.24,22.73-23.32C284.65,234,284.54,222.78,284.49,211.55Zm-118-.23a9.63,9.63,0,1,1,9.63,9.63A9.63,9.63,0,0,1,166.48,211.32Zm11.88,34.77c-2.51-3.23-4-7.4,1.66-7.51,17.56-.34,35.14.27,52.71.58.45,0,.88.86,1.77,1.78C223.41,260.89,191.9,263.54,178.36,246.09ZM234.5,221a9.63,9.63,0,1,1,9.63-9.63A9.63,9.63,0,0,1,234.5,221Z"/><text class="cls-2" transform="translate(76.57 457)">Selly</text></g></svg>