<svg id="Layer_1" data-name="Layer 1" xmlns="http://www.w3.org/2000/svg" viewBox="0 0 410 410"><defs><style>.cls-1{fill:#5c6ab2;}</style></defs><title>logo</title><path class="cls-1" d="M153.86,325.55c-16.83,2.08-36.81-5.5-46.71,15.74-38-22.66-74.63-84.08-64.46-152.49C54.64,108.44,117.37,55.68,187.13,49c79.73-7.6,148.52,36.87,173.26,110.48,24.5,72.93-5.84,146.26-56.53,182.3-9.86-20.94-29.33-14.85-46.26-16-5.55-10.27-5.55-10.27-35.28-12.21l-1-10.23c17.45,0,34-.14,50.55.05,12.69.14,22.93-4.8,28.67-15.91,3.08-6,3.74-13.43,4.45-20.32.55-5.45.36-10.13,5.63-14.17,6.29-4.82,8-31.87,1.65-37.06-7.88-6.49-7.11-14.15-7.18-22.32-.12-14.19-6.31-24.94-19.39-30.53-5.71-2.44-12.4-2.59-19.84-4,0-11-.25-22.5.2-34,.09-2.37,2.54-4.86,4.33-6.92,7.82-9,7.78-20.12-.3-27.46a18.22,18.22,0,0,0-25.24.81c-7.26,7.4-6.84,18.18.56,26.82,2.08,2.44,4,5.84,4.18,8.91.56,9,.23,18,.19,26.94,0,1.56-.31,3.12-.54,5.4H160.34c0-11.79-.27-23.83.23-35.84.1-2.28,3.14-4.52,5-6.64,7.16-8.21,6.88-18.38-.79-25.83a17.88,17.88,0,0,0-25.17-.22c-7.51,7-7.52,17.6-1.23,26.06a29.48,29.48,0,0,1,5.39,14.18c.81,8.58.12,17.3,0,26a11.77,11.77,0,0,1-.86,2.53c-1.8.17-3.93.43-6.06.57-19.16,1.25-31.09,13.73-31.45,33.17-.15,8.21.48,15.62-7.29,22.33-7.46,6.43-3.67,32,3.27,39.31a15.9,15.9,0,0,1,3.81,9.78c.6,27.56,11.34,38.34,38.83,38.36h43.84v9.26C176.84,318.78,159.06,304.75,153.86,325.55Z"/><path class="cls-1" d="M284.49,216.77c-.07-18.26-7.95-26.17-26.52-26.32-17.64-.14-35.28,0-52.91,0v0c-18.6,0-37.21-.27-55.8.09-14.46.28-22.75,8.56-23.14,22.78q-.51,18.75,0,37.52c.38,14.24,8.74,22.82,23,22.93q56.28.41,112.56,0c14-.12,22.47-9.24,22.73-23.32C284.65,239.22,284.54,228,284.49,216.77Zm-118-.24a9.63,9.63,0,1,1,9.63,9.63A9.63,9.63,0,0,1,166.48,216.53Zm11.88,34.78c-2.51-3.24-4-7.41,1.66-7.52,17.56-.34,35.14.27,52.71.59.45,0,.88.86,1.77,1.77C223.41,266.11,191.9,268.76,178.36,251.31Zm56.14-25.15a9.63,9.63,0,1,1,9.63-9.63A9.63,9.63,0,0,1,234.5,226.16Z"/></svg>